<svg id="Layer_1" data-name="Layer 1" xmlns="http://www.w3.org/2000/svg" viewBox="0 0 512 512">
    <defs>
        <style>.cls-1{stroke:#000;stroke-miterlimit:10;stroke-width:8px;}</style>
    </defs>
    <title>vk (1)</title>
    <path d="M75,512H437a75.09,75.09,0,0,0,75-75V75A75.09,75.09,0,0,0,437,0H75A75.08,75.08,0,0,0,0,75V437A75.09,75.09,0,0,0,75,512ZM30,75A45.05,45.05,0,0,1,75,30H437a45.05,45.05,0,0,1,45,45V437a45.05,45.05,0,0,1-45,45H75a45.05,45.05,0,0,1-45-45Z"/>
    <path class="cls-1"
          d="M278.87,427.2H224a16.63,16.63,0,0,1-16.61-16.61V286.91h-32a16.63,16.63,0,0,1-16.61-16.61v-53a16.63,16.63,0,0,1,16.61-16.61h32V174.16c0-26.31,8.26-48.7,23.89-64.74S269,84.8,294.77,84.8l41.82.07a16.63,16.63,0,0,1,16.58,16.61v49.2a16.63,16.63,0,0,1-16.6,16.61H308.41c-8.59,0-10.77,1.72-11.24,2.25-.77.88-1.69,3.35-1.69,10.18v21h39a17,17,0,0,1,8.22,2.08,16.67,16.67,0,0,1,8.54,14.53l0,53a16.63,16.63,0,0,1-16.61,16.6h-39.1V410.59A16.63,16.63,0,0,1,278.87,427.2ZM227.5,407.13h47.91V277.93a11.1,11.1,0,0,1,11.09-11.09h44.62l0-46.07H286.49a11.09,11.09,0,0,1-11.08-11.09v-30c0-7.84.79-16.76,6.71-23.46,7.15-8.11,18.43-9,26.28-9h24.7V104.93l-38.34-.06c-41.48,0-67.26,26.55-67.26,69.29v35.52a11.1,11.1,0,0,1-11.09,11.09H178.9v46.07h37.51a11.1,11.1,0,0,1,11.09,11.09ZM336.55,104.94Z"/>
</svg>
