<svg width="512" height="512" xmlns="http://www.w3.org/2000/svg">
    <title>vk (1)</title>

    <g>
        <title>background</title>
        <rect fill="none" id="canvas_background" height="402" width="582" y="-1" x="-1"/>
    </g>
    <g>
        <title>Layer 1</title>
        <path stroke="null" id="svg_1"
              d="m75,513.08l362,0a75.09,75.09 0 0 0 75,-75l0,-362a75.09,75.09 0 0 0 -75,-75l-362,0a75.09,75.09 0 0 0 -75,75l0,362a75.08,75.08 0 0 0 75,75zm-45,-437a45.05,45.05 0 0 1 45,-45l362,0a45.05,45.05 0 0 1 45,45l0,362a45.05,45.05 0 0 1 -45,45l-362,0a45.05,45.05 0 0 1 -45,-45l0,-362z"/>
        <path id="svg_2"
              d="m256,392.08c74.44,0 135,-60.56 135,-135s-60.56,-135 -135,-135s-135,60.56 -135,135s60.56,135 135,135zm0,-240a105,105 0 1 1 -105,105a105.12,105.12 0 0 1 105,-105z"/>
        <path id="svg_3"
              d="m406,152.08a45,45 0 1 0 -45,-45a45.05,45.05 0 0 0 45,45zm0,-60a15,15 0 1 1 -15,15a15,15 0 0 1 15,-15z"/>
    </g>
</svg>
