<svg id="Layer_1" data-name="Layer 1" xmlns="http://www.w3.org/2000/svg" viewBox="0 0 512 512">
    <defs>
        <style>.cls-1{stroke:#000;stroke-miterlimit:10;stroke-width:12px;}</style>
    </defs>
    <title>vk (1)</title>
    <path class="cls-1"
          d="M427.09,332.43c-8.22-11.45-17.5-21.67-26.48-31.56-3.15-3.47-6.42-7.07-9.56-10.63h0c-4.23-4.79-6.3-8.19-6.52-10.7s1.24-6.14,4.58-11.56c5-8.15,10.32-16.31,15.47-24.2,4.58-7,9.31-14.27,13.85-21.57l1-1.64c8.85-14.23,18-29,22.91-46.9,1.4-5.15,2.85-12.76-.66-19.44s-10-8.67-14.59-9.58a32.29,32.29,0,0,0-6.35-.48l-57.4-.06c-9.92-.19-16.81,5.28-20.56,16.26-3,8.77-6.55,18.94-10.66,28.58-7.86,18.61-17.85,40.05-32.33,57.92l-.64.79a20.9,20.9,0,0,1-3.43,3.68c-1.56-1.14-3.37-7.7-3.29-11.13V240l-.05-77.11a9.08,9.08,0,0,0-.07-1.17c-1.28-11-3.79-22-18.77-25.47a6.53,6.53,0,0,0-1.46-.16H212.38c-11.24,0-17.18,6-21.94,12.46-1.38,1.89-5,6.91-3.18,13.05s7.52,7.44,9.37,7.85c6.5,1.44,9.87,5.71,10.91,13.89,2.06,15.88,2.31,32.87.8,53.44a49.88,49.88,0,0,1-2.48,13.21,10.45,10.45,0,0,1-.88,1.92,8.47,8.47,0,0,1-1.62-1.06c-4.57-3.64-8-9.29-11.35-14.76-13.31-21.85-24.51-46-34.23-73.78-4-11.4-11.54-17.76-21.19-17.92-18.39-.36-35.4-.35-52,0-7.82.16-13.3,3-16.3,8.51s-2.89,12.51.33,20.84c23,59.5,43.91,102.79,67.76,140.35,16.79,26.44,33.69,44.8,53.19,57.77,20.48,13.62,43.58,20.3,70.39,20.3,3,0,6.15-.09,9.29-.26,16.53-.88,23.26-8.53,24-27.25.41-9.89,1.35-17.91,4.64-24.87.92-1.95,2-3.26,2.78-3.5s2.41.37,4.12,1.66a46.71,46.71,0,0,1,8.05,8.39c2.25,2.86,4.52,5.82,6.72,8.68,4.68,6.08,9.52,12.38,14.59,18.38,11.47,13.59,24.69,19.82,39.31,18.52l52.53,0h0l.5,0c6.06-.47,11.3-4.37,14.38-10.7,3.7-7.63,3.65-17.29-.15-25.86A132.8,132.8,0,0,0,427.09,332.43Zm.69,40.15c-.73,1.5-1.62,1.77-2.08,1.83l-52.53,0h0c-.21,0-.42,0-.62,0-10.35,1-19.14-3.22-27.65-13.3-4.82-5.71-9.54-11.85-14.11-17.79-2.22-2.89-4.52-5.89-6.83-8.83a61.34,61.34,0,0,0-11-11.25c-6.82-5.14-12.46-5-16-3.95s-8.47,3.95-12.29,12c-4.95,10.48-6,21.78-6.48,32.47-.26,6.53-1.21,8.25-1.61,8.69s-2.26,1.59-8.06,1.89c-27.87,1.53-51.26-4.27-71.51-17.75-17.62-11.72-33.05-28.55-48.55-53-23.19-36.52-43.59-78.81-66.15-137.13a16.83,16.83,0,0,1-1.14-4.13,11.15,11.15,0,0,1,3.67-.55c16.42-.37,33.25-.38,51.47,0,2.5,0,5.34.91,7.49,7,10.16,29,21.9,54.33,35.89,77.29,3.72,6.1,8.34,13.68,15.13,19.09,6.23,4.95,11.28,4.71,14.42,3.64s7.5-4,10.44-12.13a68.44,68.44,0,0,0,3.61-18.5c1.62-22,1.33-40.29-.9-57.55-1.58-12.36-7.07-21.29-15.72-25.85a10.41,10.41,0,0,1,5.67-1.32h58.93c3.32.87,4,1.88,4.2,2.23.95,1.48,1.5,5,1.83,7.7l.05,76.39c-.13,7.33,2.93,23.57,13.36,28l.26.1c9.49,3.6,15.76-4.18,19.13-8.37l.61-.74c15.85-19.57,26.53-42.43,34.88-62.19,4.35-10.2,8-20.76,11.14-29.85,1.56-4.57,3-5.32,6.36-5.23h.14l57.48.06a21.55,21.55,0,0,1,3.81.23,10.8,10.8,0,0,1,4.24,1.48,15.92,15.92,0,0,1-.8,5c-4.16,15.26-12.22,28.23-20.75,41.95l-1,1.64c-4.43,7.13-9.11,14.3-13.64,21.24-5.21,8-10.61,16.26-15.72,24.6-10.93,17.73-10,29.5,3.67,45,3.23,3.66,6.53,7.3,9.73,10.82,9.06,10,17.62,19.4,25.25,30a115.17,115.17,0,0,1,11.84,19.75A11.46,11.46,0,0,1,427.78,372.58Z"/>
    <path d="M75,512H437a75.09,75.09,0,0,0,75-75V75A75.09,75.09,0,0,0,437,0H75A75.08,75.08,0,0,0,0,75V437A75.09,75.09,0,0,0,75,512ZM30,75A45.05,45.05,0,0,1,75,30H437a45.05,45.05,0,0,1,45,45V437a45.05,45.05,0,0,1-45,45H75a45.05,45.05,0,0,1-45-45Z"/>
</svg>
